<?xml version="1.0" standalone="no"?>
<!DOCTYPE svg PUBLIC "-//W3C//DTD SVG 20010904//EN"
 "http://www.w3.org/TR/2001/REC-SVG-20010904/DTD/svg10.dtd">
<svg version="1.0" xmlns="http://www.w3.org/2000/svg"
 width="643.000000pt" height="81.000000pt" viewBox="0 0 643.000000 81.000000"
 preserveAspectRatio="xMidYMid meet">

<g transform="translate(0.000000,81.000000) scale(0.100000,-0.100000)"
fill="#000000" stroke="none">
<path d="M0 405 l0 -405 3215 0 3215 0 0 405 0 405 -3215 0 -3215 0 0 -405z
m2550 140 c0 -17 -5 -25 -18 -25 -21 0 -42 -18 -42 -37 0 -7 11 -13 25 -13 20
0 25 -5 25 -25 0 -20 -5 -25 -25 -25 -25 0 -25 0 -25 -95 l0 -95 -35 0 -35 0
0 95 c0 78 -3 95 -15 95 -9 0 -15 9 -15 25 0 15 6 25 15 25 8 0 17 14 21 35 8
44 37 65 86 65 34 0 38 -3 38 -25z m-473 4 c40 -15 73 -49 73 -76 0 -34 -51
-32 -74 2 -25 39 -86 31 -86 -11 0 -19 10 -27 60 -45 72 -26 100 -57 100 -110
0 -113 -210 -115 -245 -1 -6 20 -3 22 32 22 30 0 40 -5 48 -22 18 -41 95 -36
95 6 0 19 -12 28 -65 51 -100 42 -128 93 -84 149 31 39 95 55 146 35z m867
-21 c3 -13 10 -50 16 -83 20 -104 22 -105 41 -20 11 44 21 90 24 103 5 19 11
23 37 20 32 -3 32 -4 52 -95 11 -51 23 -93 26 -93 4 0 14 43 24 95 l18 95 34
0 c21 0 34 -5 33 -12 0 -7 -15 -78 -33 -158 l-32 -145 -37 -3 c-40 -3 -40 -3
-68 125 -7 29 -15 53 -19 53 -3 0 -15 -39 -26 -87 l-19 -88 -37 -3 c-32 -3
-38 0 -43 20 -14 63 -65 291 -65 294 0 2 16 4 35 4 28 0 36 -4 39 -22z m-602
-72 c27 -20 38 -62 38 -147 l0 -79 -52 -1 c-29 0 -68 -1 -85 -1 -59 -2 -92 57
-63 112 11 21 60 40 101 40 31 0 32 1 23 24 -8 20 -53 21 -60 1 -6 -15 -55
-21 -67 -9 -10 10 14 51 37 62 30 15 108 14 128 -2z m386 -9 c21 -22 42 -75
42 -104 0 -9 -21 -13 -75 -13 -55 0 -75 -3 -75 -13 0 -34 52 -48 91 -24 17 10
22 9 35 -8 14 -18 13 -22 -6 -37 -86 -70 -214 12 -195 124 11 63 51 98 112 98
39 0 54 -5 71 -23z m708 5 c31 -25 44 -55 44 -102 0 -83 -61 -140 -135 -126
-94 18 -128 158 -54 220 37 32 111 36 145 8z m134 8 c0 -7 6 -7 19 0 29 15 87
12 101 -5 12 -14 15 -14 30 0 9 8 35 15 58 15 61 0 72 -22 72 -142 l0 -98 -35
0 -35 0 0 90 c0 75 -3 92 -16 97 -37 14 -49 -10 -52 -101 l-3 -86 -34 0 -34 0
-3 93 c-3 91 -3 92 -28 92 -25 0 -25 -1 -28 -92 l-3 -93 -34 0 -35 0 0 120 0
120 30 0 c17 0 30 -5 30 -10z m485 -15 c22 -21 25 -33 25 -104 0 -44 3 -87 6
-95 5 -14 -3 -16 -52 -16 -33 -1 -72 -1 -88 -2 -31 -1 -76 39 -76 68 0 43 56
84 115 84 20 0 26 4 23 18 -4 23 -48 29 -60 8 -5 -9 -22 -16 -38 -16 -23 0
-30 5 -30 19 0 58 127 84 175 36z m125 13 c0 -9 3 -9 12 0 7 7 31 12 54 12 63
0 74 -21 74 -142 l0 -98 -35 0 -35 0 0 90 c0 75 -3 92 -16 97 -37 14 -49 -10
-52 -101 l-3 -86 -34 0 -35 0 0 120 0 120 35 0 c21 0 35 -5 35 -12z"/>
<path d="M2258 329 c-27 -15 -23 -49 6 -49 28 0 51 24 42 45 -6 17 -23 19 -48
4z"/>
<path d="M2632 408 c-24 -24 -13 -38 28 -38 43 0 45 2 30 31 -12 21 -40 25
-58 7z"/>
<path d="M3336 404 c-18 -18 -21 -76 -6 -105 6 -11 21 -19 35 -19 29 0 45 26
45 74 0 35 -21 66 -45 66 -7 0 -21 -7 -29 -16z"/>
<path d="M3962 329 c-34 -13 -25 -44 13 -44 25 0 31 4 33 28 4 29 -6 33 -46
16z"/>
</g>
</svg>
